<?xml version="1.0" encoding="UTF-8" standalone="no"?>
<!DOCTYPE svg PUBLIC "-//W3C//DTD SVG 1.1//EN" "http://www.w3.org/Graphics/SVG/1.1/DTD/svg11.dtd">
<svg width="100%" height="100%" viewBox="0 0 700 645" version="1.1" xmlns="http://www.w3.org/2000/svg" xmlns:xlink="http://www.w3.org/1999/xlink" xml:space="preserve" xmlns:serif="http://www.serif.com/" style="fill-rule:evenodd;clip-rule:evenodd;stroke-linecap:round;stroke-linejoin:round;stroke-miterlimit:1.5;">
    <g transform="matrix(1,0,0,1,5.5,-51.7436)">
        <g transform="matrix(2.25106,0,0,4.43987,-651.982,-439.483)">
            <g transform="matrix(0.512371,0.252326,-0.981586,0.512371,405.17,-14.1416)">
                <g transform="matrix(0.446123,-0.219701,0.433326,0.226189,101.619,170.748)">
                    <rect x="0" y="57.244" width="688.342" height="633.379" style="fill:rgb(89,89,89);stroke:rgb(89,89,89);stroke-width:11px;"/>
                </g>
                <g transform="matrix(0,-0.271852,0.62193,2.77556e-17,260.734,225.283)">
                    <path d="M49.274,250L100.31,199.63L150.438,250L200.399,200.09L250,250L299.939,199.626" style="fill:none;stroke:rgb(204,204,204);stroke-width:11.78px;"/>
                </g>
                <g transform="matrix(0.799405,0,0,0.405306,256.261,72.7661)">
                    <circle cx="180.498" cy="134.066" r="55.746" style="fill:white;"/>
                </g>
                <g transform="matrix(0.572391,-0.281883,0.511687,0.267092,112.237,208.276)">
                    <rect x="366.244" y="110.869" width="65.458" height="12.571" style="fill-rule:nonzero;"/>
                </g>
                <g transform="matrix(0.799405,0,0,0.405306,256.261,173.336)">
                    <circle cx="180.498" cy="134.066" r="55.746" style="fill:white;"/>
                </g>
                <g transform="matrix(0.572391,-0.281883,0.511687,0.267092,119.644,312.668)">
                    <path d="M404.11,97.141L435.469,97.141L435.469,108.554L404.11,108.554L404.11,143.784L393.53,143.784L393.53,108.554L362.324,108.554L362.324,97.141L393.53,97.141L393.53,61.745L404.11,61.745L404.11,97.141Z" style="fill-rule:nonzero;"/>
                </g>
            </g>
        </g>
        <g transform="matrix(2.25106,0,0,4.43987,-651.982,-439.483)">
            <g id="drude-logo" serif:id="drude logo" transform="matrix(0.911249,0,0,0.225232,194.083,143.875)">
                <path d="M331.51,329.208L322.655,329.208C320.37,317.424 318.045,305.721 315.68,294.1C313.316,282.479 310.991,270.712 308.706,258.798L300.422,271.591L294.471,329.208L286.378,329.208L301.088,186.434L309.182,186.434L301.993,255.77L335.318,186.434L345.268,186.434L314.847,248.641L331.51,329.208Z" style="fill:rgb(204,204,204);fill-rule:nonzero;"/>
                <path d="M374.573,220.192C374.573,233.932 372.755,244.436 369.119,251.705C365.483,258.973 360.251,262.608 353.423,262.608L342.183,262.608L342.183,179.371L354.617,179.371C360.927,179.371 365.83,182.958 369.327,190.131C372.824,197.305 374.573,207.325 374.573,220.192ZM369.577,220.534C369.577,209.678 368.249,201.499 365.594,195.995C362.939,190.492 358.993,187.74 353.756,187.74L346.901,187.74L346.901,254.239L352.646,254.239C358.271,254.239 362.499,251.401 365.33,245.727C368.161,240.053 369.577,231.655 369.577,220.534Z" style="fill:rgb(204,204,204);fill-rule:nonzero;"/>
            </g>
        </g>
        <g transform="matrix(2.25106,0,0,4.43987,-651.982,-439.483)">
            <g transform="matrix(0.785083,0,0,0.225232,302.414,172.413)">
                <path d="M54.744,217.507C58.115,217.507 60.639,220.405 62.315,226.199L62.591,226.199L64.359,218.484L69.277,218.484L59.883,296.511L53.446,296.511L55.518,279.47C55.739,277.647 56.14,274.718 56.72,270.681C57.3,266.645 57.655,264.35 57.784,263.796L57.562,263.796C56.015,267.312 54.505,269.802 53.031,271.267C51.558,272.732 49.992,273.464 48.334,273.464C45.774,273.464 43.757,271.796 42.284,268.46C40.81,265.123 40.073,260.492 40.073,254.568C40.073,247.797 40.746,241.498 42.09,235.671C43.435,229.845 45.208,225.361 47.409,222.219C49.61,219.078 52.055,217.507 54.744,217.507ZM51.07,264.187C52.543,264.187 54.008,262.869 55.463,260.232C56.918,257.595 58.092,254.129 58.985,249.832C59.879,245.535 60.325,241.157 60.325,236.697C60.325,233.637 59.906,231.236 59.068,229.495C58.23,227.753 57.065,226.882 55.573,226.882C53.989,226.882 52.516,228.144 51.153,230.667C49.789,233.189 48.698,236.599 47.878,240.896C47.059,245.193 46.649,249.653 46.649,254.275C46.649,260.883 48.123,264.187 51.07,264.187Z" style="fill:white;fill-rule:nonzero;"/>
                <path d="M85.459,269.407C83.806,269.407 82.329,270.252 81.03,271.941C79.73,273.63 78.691,276.092 77.913,279.328C77.134,282.564 76.745,286.117 76.745,289.989C76.745,293.405 77.188,296.019 78.074,297.831C78.96,299.644 80.267,300.55 81.996,300.55C83.51,300.55 85.277,299.905 87.296,298.614L87.296,304.45C85.363,305.721 83.355,306.357 81.271,306.357C78.608,306.357 76.522,304.948 75.014,302.13C73.505,299.312 72.75,295.36 72.75,290.274C72.75,285.339 73.317,280.756 74.45,276.524C75.583,272.292 77.094,269.075 78.984,266.874C80.874,264.672 83.033,263.572 85.459,263.572C87.79,263.572 89.878,264.445 91.725,266.191L90.211,271.742C89.535,271.096 88.815,270.546 88.053,270.091C87.29,269.635 86.426,269.407 85.459,269.407Z" style="fill:white;fill-rule:nonzero;"/>
            </g>
        </g>
        <g transform="matrix(2.25106,0,0,4.43987,-651.982,-439.483)">
            <g transform="matrix(0.785083,0,0,0.225232,489.794,72.6217)">
                <path d="M43.678,217.507C47.049,217.507 49.572,220.405 51.249,226.199L51.525,226.199L53.293,218.484L58.211,218.484L48.817,296.511L42.38,296.511L44.452,279.47C44.673,277.647 45.074,274.718 45.654,270.681C46.234,266.645 46.589,264.35 46.717,263.796L46.496,263.796C44.949,267.312 43.439,269.802 41.965,271.267C40.492,272.732 38.926,273.464 37.268,273.464C34.708,273.464 32.691,271.796 31.217,268.46C29.744,265.123 29.007,260.492 29.007,254.568C29.007,247.797 29.679,241.498 31.024,235.671C32.369,229.845 34.142,225.361 36.343,222.219C38.544,219.078 40.989,217.507 43.678,217.507ZM40.004,264.187C41.477,264.187 42.941,262.869 44.397,260.232C45.852,257.595 47.026,254.129 47.919,249.832C48.813,245.535 49.259,241.157 49.259,236.697C49.259,233.637 48.84,231.236 48.002,229.495C47.164,227.753 45.999,226.882 44.507,226.882C42.923,226.882 41.449,228.144 40.086,230.667C38.723,233.189 37.632,236.599 36.812,240.896C35.993,245.193 35.583,249.653 35.583,254.275C35.583,260.883 37.056,264.187 40.004,264.187Z" style="fill:white;fill-rule:nonzero;"/>
                <path d="M80.627,280.367C80.627,285.51 80.09,289.998 79.016,293.832C77.942,297.665 76.38,300.616 74.329,302.685C72.278,304.754 69.867,305.788 67.097,305.788L60.637,305.788L65.615,264.169L71.558,264.169C74.469,264.169 76.708,265.545 78.275,268.297C79.843,271.049 80.627,275.072 80.627,280.367ZM67.29,300.066C69.191,300.066 70.85,299.25 72.267,297.618C73.685,295.986 74.772,293.69 75.529,290.729C76.286,287.768 76.665,284.39 76.665,280.595C76.665,277.103 76.192,274.441 75.247,272.61C74.302,270.778 72.928,269.863 71.123,269.863L68.772,269.863L65.115,300.066L67.29,300.066Z" style="fill:white;fill-rule:nonzero;"/>
                <path d="M96.525,269.407C94.872,269.407 93.395,270.252 92.096,271.941C90.796,273.63 89.758,276.092 88.979,279.328C88.2,282.564 87.811,286.117 87.811,289.989C87.811,293.405 88.254,296.019 89.14,297.831C90.026,299.644 91.333,300.55 93.062,300.55C94.576,300.55 96.343,299.905 98.362,298.614L98.362,304.45C96.429,305.721 94.421,306.357 92.337,306.357C89.674,306.357 87.588,304.948 86.08,302.13C84.571,299.312 83.816,295.36 83.816,290.274C83.816,285.339 84.383,280.756 85.516,276.524C86.649,272.292 88.16,269.075 90.05,266.874C91.94,264.672 94.099,263.572 96.525,263.572C98.856,263.572 100.944,264.445 102.791,266.191L101.277,271.742C100.601,271.096 99.881,270.546 99.119,270.091C98.356,269.635 97.492,269.407 96.525,269.407Z" style="fill:white;fill-rule:nonzero;"/>
            </g>
        </g>
    </g>
</svg>
